<?xml version="1.0" standalone="no"?>
<!DOCTYPE svg PUBLIC "-//W3C//DTD SVG 20010904//EN"
 "http://www.w3.org/TR/2001/REC-SVG-20010904/DTD/svg10.dtd">
<svg version="1.0" xmlns="http://www.w3.org/2000/svg"
 width="474.000000pt" height="316.000000pt" viewBox="0 0 474.000000 316.000000"
 preserveAspectRatio="xMidYMid meet">

<g transform="translate(0.000000,316.000000) scale(0.100000,-0.100000)"
fill="#000000" stroke="none">
<path d="M4554 3134 c-4 -14 -4 -48 0 -77 4 -29 7 -59 7 -67 0 -8 7 -73 15
-145 8 -71 15 -143 16 -160 1 -16 8 -37 15 -46 8 -9 13 -20 12 -25 -5 -28 5
-50 41 -85 34 -34 46 -60 41 -91 0 -5 3 -8 9 -8 5 0 10 9 10 20 0 11 5 20 10
20 6 0 10 122 10 345 l0 345 -90 0 c-88 0 -90 -1 -96 -26z"/>
<path d="M1046 3095 c-8 -23 10 -62 39 -81 30 -19 59 -70 52 -88 -7 -17 -98
-34 -217 -41 -270 -15 -331 -26 -373 -63 -26 -23 -15 -67 26 -107 39 -39 98
-110 114 -139 30 -52 -3 -162 -75 -251 -38 -46 -64 -115 -58 -150 4 -17 40
-72 84 -127 87 -106 109 -158 99 -233 -10 -72 -22 -88 -180 -259 -61 -66 -61
-97 -1 -122 69 -29 156 -13 244 44 47 32 115 69 317 174 41 21 43 21 62 4 16
-14 33 -17 98 -14 43 2 86 8 96 12 15 7 17 2 17 -41 0 -28 5 -65 12 -84 15
-45 66 -107 102 -126 29 -15 31 -14 53 11 l23 27 66 -68 66 -68 -6 -68 c-3
-38 -10 -75 -16 -82 -12 -15 -130 -74 -211 -105 -49 -19 -174 -73 -239 -103
-14 -6 -38 -20 -55 -32 -16 -11 -45 -28 -63 -38 -112 -60 -295 -230 -368 -342
-21 -32 -46 -67 -54 -76 -63 -68 -136 -153 -139 -162 -2 -7 -10 -16 -17 -22
-7 -6 -14 -57 -19 -142 l-6 -133 208 0 208 0 30 48 c16 26 53 71 81 99 46 47
57 53 93 53 40 0 41 -1 41 -35 0 -22 8 -43 21 -56 15 -15 19 -28 14 -56 -3
-19 -8 -39 -11 -44 -3 -5 2 -9 10 -9 8 0 18 10 21 23 16 51 58 76 137 81 39 3
52 -16 44 -64 l-6 -40 113 0 114 0 11 38 c10 32 20 41 74 67 38 19 74 45 93
68 27 35 30 47 33 122 4 89 -9 172 -34 220 -35 65 -55 157 -48 225 5 53 2 75
-15 120 -20 50 -22 73 -21 266 l1 211 -38 34 c-65 59 -121 139 -98 139 3 0 22
-11 43 -23 49 -31 89 -39 130 -24 33 11 34 11 79 -41 58 -68 81 -69 124 -4 48
70 80 102 124 121 70 31 73 32 102 4 27 -25 31 -25 126 -20 86 5 102 8 124 29
21 19 24 29 19 61 l-6 38 62 -3 63 -3 27 -56 c20 -42 42 -69 85 -102 106 -82
111 -91 123 -197 5 -52 10 -128 10 -168 0 -52 6 -85 20 -114 27 -56 25 -122
-5 -243 -35 -135 -34 -236 1 -472 5 -34 3 -44 -10 -49 -9 -3 -16 -12 -16 -19
0 -6 -28 -34 -62 -61 -35 -27 -83 -68 -107 -91 -33 -30 -56 -43 -88 -48 -67
-10 -51 -25 26 -25 46 0 71 4 74 13 4 10 6 10 6 0 1 -7 7 -13 15 -13 8 0 17 6
19 13 4 10 6 10 6 0 1 -10 141 -13 667 -13 627 0 666 1 660 17 -13 34 -44 159
-50 203 -8 56 -34 108 -164 330 -130 220 -260 371 -370 429 -35 18 -112 45
-170 61 -111 28 -144 35 -272 50 -41 6 -92 17 -112 26 l-37 17 1 103 c2 128
-13 168 -81 215 -67 47 -110 90 -125 124 -8 17 -21 84 -31 150 -9 66 -21 131
-25 145 -5 14 -14 72 -19 130 -6 70 -17 119 -30 147 -17 34 -21 61 -21 143 0
117 -12 155 -69 215 -74 79 -81 92 -81 164 0 48 -6 77 -21 106 -25 47 -27 90
-6 168 19 73 14 89 -27 85 -27 -3 -35 -11 -64 -71 -42 -87 -58 -95 -164 -79
-44 6 -94 20 -111 31 -18 11 -54 28 -82 39 -127 50 -282 113 -297 122 -50 28
-155 40 -353 40 -172 0 -204 -2 -209 -15z m494 -28 c134 -48 386 -153 426
-176 41 -24 120 -41 194 -41 71 0 88 13 125 95 15 35 30 55 41 55 13 0 15 -6
9 -27 -27 -110 -28 -137 -7 -183 15 -33 20 -65 20 -111 -1 -71 15 -110 67
-159 69 -65 104 -158 90 -246 l-6 -44 -64 68 c-138 146 -165 162 -279 162 -80
0 -118 -19 -136 -66 -8 -21 -16 -24 -61 -24 -28 0 -65 -6 -82 -14 -18 -8 -70
-16 -117 -19 -66 -3 -98 -11 -137 -30 -79 -40 -99 -71 -106 -162 -5 -56 -14
-91 -32 -123 -32 -58 -34 -132 -4 -182 12 -19 25 -47 30 -62 7 -27 6 -28 -26
-28 -24 0 -40 -8 -57 -27 -31 -38 -80 -56 -160 -61 -57 -3 -68 -1 -68 12 0 33
-59 15 -206 -61 -82 -42 -169 -91 -194 -108 -65 -45 -104 -58 -172 -58 -66 1
-94 18 -84 49 3 11 29 44 57 74 75 80 133 151 148 182 19 37 11 160 -12 186
-9 10 -17 24 -17 31 0 14 -76 116 -109 145 -44 40 -36 127 19 196 43 55 87
141 95 184 9 52 -27 120 -111 211 -35 38 -63 77 -62 85 2 8 32 25 67 38 53 19
90 23 216 26 84 2 186 10 228 16 64 11 77 16 86 37 19 41 13 62 -34 112 -25
26 -45 51 -45 54 0 9 82 12 265 11 122 0 171 -4 205 -17z m671 -642 c63 -8
127 -52 189 -130 58 -74 62 -89 23 -78 -16 5 -53 8 -83 8 -46 0 -62 -5 -100
-33 -49 -36 -62 -58 -53 -91 7 -28 19 -26 59 9 46 40 94 47 169 26 63 -18 68
-19 99 -14 14 2 21 -5 27 -26 5 -17 7 -31 6 -32 -2 -2 -22 2 -46 8 -32 8 -56
8 -98 -2 -73 -18 -113 -55 -114 -107 l-1 -38 -20 47 c-22 48 -62 78 -81 59 -7
-7 -1 -14 16 -22 14 -6 31 -26 38 -43 34 -87 94 -205 139 -273 58 -88 63 -119
23 -127 -51 -10 -162 -11 -172 -1 -5 6 -13 29 -18 53 -10 51 -27 60 -31 16 -3
-27 -8 -32 -51 -43 -58 -15 -141 -82 -183 -147 -15 -24 -32 -44 -38 -44 -6 0
-25 22 -42 50 -34 55 -53 65 -92 50 -48 -18 -84 -11 -133 24 l-48 34 -3 94
c-2 70 -7 98 -20 113 -84 97 -100 156 -62 230 11 22 20 59 20 85 1 107 24 146
112 194 41 22 69 29 132 33 45 3 98 11 119 19 20 8 62 14 91 14 54 0 55 1 66
36 13 38 53 63 93 58 12 -2 43 -6 68 -9z m242 -241 c30 -7 41 -19 32 -34 -4
-6 -18 -4 -37 6 -48 25 -169 16 -201 -14 -15 -14 -27 -19 -31 -13 -10 15 60
64 102 71 20 3 53 2 72 -2 19 -5 47 -11 63 -14z m-15 -161 c-10 -2 -28 -2 -40
0 -13 2 -5 4 17 4 22 1 32 -1 23 -4z m102 -32 c0 -10 -48 -21 -91 -21 -32 0
-39 16 -11 23 31 8 102 7 102 -2z m-194 -57 c-5 -14 -9 -15 -19 -5 -9 9 -9 14
3 21 18 11 24 6 16 -16z m194 -23 c0 -10 -7 -24 -15 -31 -11 -9 -13 -16 -6
-23 7 -7 15 -6 25 2 19 16 29 -3 45 -77 17 -80 15 -114 -6 -109 -48 14 -114
17 -132 7 -18 -9 -25 -5 -52 32 -49 67 -130 234 -84 174 10 -13 31 -20 65 -24
49 -4 66 7 38 25 -8 4 7 14 42 25 71 22 80 22 80 -1z m-1013 -215 c28 -24 28
-26 26 -126 -3 -118 -8 -140 -31 -140 -37 1 -118 139 -91 156 14 8 25 -2 45
-43 l19 -38 3 45 c6 74 -7 132 -29 137 -22 6 -25 19 -6 26 24 10 36 7 64 -17z
m-57 -60 c0 -8 -4 -18 -10 -21 -5 -3 -10 3 -10 14 0 12 5 21 10 21 6 0 10 -6
10 -14z m1947 -828 c-3 -8 -6 -5 -6 6 -1 11 2 17 5 13 3 -3 4 -12 1 -19z m210
-90 c-3 -7 -5 -2 -5 12 0 14 2 19 5 13 2 -7 2 -19 0 -25z m-2627 -8 c0 -5 -5
-10 -11 -10 -5 0 -7 5 -4 10 3 6 8 10 11 10 2 0 4 -4 4 -10z m727 -83 c-3 -7
-6 -5 -6 6 -1 9 -5 17 -11 17 -5 0 -10 8 -10 17 0 14 3 13 16 -5 8 -12 13 -28
11 -35z m1140 -9 c-3 -8 -6 -5 -6 6 -1 11 2 17 5 13 3 -3 4 -12 1 -19z m463
-68 c0 -5 -4 -10 -10 -10 -5 0 -10 5 -10 10 0 6 5 10 10 10 6 0 10 -4 10 -10z
m80 6 c0 -2 -7 -6 -15 -10 -8 -3 -15 -1 -15 4 0 6 7 10 15 10 8 0 15 -2 15 -4z
m-1973 -12 c-3 -3 -12 -4 -19 -1 -8 3 -5 6 6 6 11 1 17 -2 13 -5z m11 -61 c3
-22 1 -23 -87 -23 -88 0 -91 -1 -97 -25 -3 -14 -3 -36 0 -50 7 -26 28 -32 104
-26 38 2 63 -14 55 -35 -4 -10 -24 -14 -79 -14 l-73 0 -3 -87 c-3 -88 -3 -88
-30 -91 l-28 -3 0 185 c0 138 3 186 13 190 6 2 59 4 117 3 101 -2 105 -3 108
-24z m299 7 c51 -31 77 -91 77 -181 1 -66 -2 -81 -27 -117 -49 -75 -156 -96
-234 -46 -50 33 -74 80 -80 159 -4 52 -1 68 24 115 20 39 38 60 63 72 48 25
136 24 177 -2z m1338 6 c22 -10 35 -22 35 -34 0 -29 -10 -33 -43 -15 -37 19
-113 21 -144 4 -17 -8 -23 -21 -23 -45 0 -37 15 -47 104 -66 93 -20 116 -41
116 -104 0 -90 -109 -138 -230 -102 -40 12 -45 17 -48 45 -4 36 2 38 43 11 21
-14 47 -20 86 -20 46 0 59 4 78 24 17 18 22 32 17 50 -6 26 -14 29 -123 56
-58 14 -92 47 -100 92 -7 46 12 78 59 101 41 21 127 22 173 3z m363 -13 c3
-22 1 -23 -92 -23 l-96 0 0 -50 0 -50 95 0 c95 0 95 0 95 -25 0 -25 0 -25 -95
-25 l-95 0 0 -65 0 -64 93 -3 c86 -3 92 -4 95 -25 4 -28 -21 -35 -98 -29 -30
2 -74 5 -97 5 l-43 1 0 183 c0 101 3 187 7 191 4 3 57 5 117 4 106 -3 111 -4
114 -25z m-2008 -84 c0 -5 -7 -9 -15 -9 -8 0 -15 7 -15 15 0 9 6 12 15 9 8 -4
15 -10 15 -15z m2490 -177 c0 -21 -2 -24 -10 -12 -13 20 -13 53 0 45 6 -3 10
-18 10 -33z m-460 -146 c0 -3 -4 -8 -10 -11 -5 -3 -10 -1 -10 4 0 6 5 11 10
11 6 0 10 -2 10 -4z"/>
<path d="M1746 2069 c-51 -57 -76 -101 -76 -136 0 -18 9 -28 36 -39 39 -16 53
-9 54 25 0 8 11 34 25 57 29 49 63 61 140 50 51 -8 66 7 47 49 -12 25 -33 32
-129 39 -52 5 -53 4 -97 -45z m158 15 c29 -4 46 -12 46 -20 0 -10 -16 -14 -61
-14 -75 0 -113 -23 -141 -87 -22 -50 -44 -52 -41 -4 1 22 14 47 45 80 46 53
61 57 152 45z"/>
<path d="M1868 1907 c-21 -17 -42 -44 -48 -59 -7 -21 -16 -28 -35 -28 -28 0
-29 -2 -16 -28 5 -9 12 -25 15 -36 5 -15 9 -16 21 -6 10 8 19 9 28 2 27 -21
55 -23 61 -4 7 20 85 62 116 62 11 0 20 -7 20 -15 0 -23 27 -18 61 13 27 24
29 30 19 53 -19 43 -89 79 -151 79 -46 0 -59 -5 -91 -33z m171 -26 c16 -10 3
-15 -68 -26 -34 -6 -42 -4 -39 6 4 12 35 22 83 28 6 0 16 -3 24 -8z m-169 -71
c0 -5 -4 -10 -10 -10 -5 0 -10 5 -10 10 0 6 5 10 10 10 6 0 10 -4 10 -10z"/>
<path d="M1602 450 c-18 -11 -40 -36 -48 -55 -31 -76 -7 -184 47 -212 34 -18
90 -16 118 3 75 53 66 229 -15 267 -45 22 -62 21 -102 -3z m3 -79 c3 -5 1 -12
-5 -16 -5 -3 -10 1 -10 9 0 18 6 21 15 7z m105 -15 c0 -3 -4 -8 -10 -11 -5 -3
-10 -1 -10 4 0 6 5 11 10 11 6 0 10 -2 10 -4z m-87 -80 c18 -4 40 -8 49 -9 13
-1 14 -5 6 -14 -14 -17 -33 -16 -48 2 -19 22 -32 18 -25 -7 7 -23 7 -23 -9 -3
-9 11 -15 37 -14 60 1 35 2 36 5 9 3 -27 10 -33 36 -38z m62 35 c8 -14 -13
-24 -33 -16 -14 5 -14 7 -2 15 19 12 27 12 35 1z m55 -15 c0 -3 -4 -8 -10 -11
-5 -3 -10 -1 -10 4 0 6 5 11 10 11 6 0 10 -2 10 -4z"/>
<path d="M4576 2107 c-22 -19 -28 -35 -36 -105 -11 -89 -11 -102 14 -257 9
-55 21 -132 28 -172 6 -43 16 -74 24 -77 8 -3 14 -12 14 -20 0 -21 22 -66 31
-66 17 0 49 -35 49 -52 0 -22 7 -23 26 -4 19 20 21 541 2 550 -10 5 -10 7 0
12 6 3 12 12 12 19 0 7 -6 16 -12 19 -10 5 -10 7 0 12 6 3 12 14 12 24 0 10
-6 21 -12 23 -10 4 -10 6 0 6 18 1 15 21 -3 21 -9 0 -15 6 -14 13 4 30 -3 43
-28 54 -58 23 -79 24 -107 0z"/>
<path d="M2275 1440 c-111 -25 -143 -36 -182 -62 -43 -30 -77 -97 -68 -138 7
-31 83 -123 118 -142 33 -17 108 -11 129 11 11 12 25 17 38 14 11 -3 41 2 66
12 41 16 47 16 63 1 26 -24 78 -21 95 7 46 71 62 222 30 278 l-20 34 -95 2
c-60 1 -122 -5 -174 -17z m266 -31 c19 -27 21 -39 15 -101 -7 -78 -36 -155
-61 -164 -10 -4 -27 4 -46 22 -30 28 -30 29 -60 11 -18 -10 -52 -17 -82 -17
-45 0 -54 -3 -62 -22 -8 -19 -18 -23 -52 -22 -62 1 -142 74 -143 132 0 19 3
21 19 12 11 -5 28 -10 38 -10 10 0 43 -13 73 -30 79 -42 155 -42 215 1 46 33
105 107 105 133 0 8 5 18 10 21 19 12 10 35 -12 35 -13 0 -110 -23 -217 -50
-222 -57 -232 -59 -207 -31 51 56 202 96 423 110 14 0 30 -10 44 -30z m-141
-83 c0 -14 5 -28 11 -31 13 -9 -16 -42 -53 -61 -30 -16 -104 -19 -112 -5 -10
16 5 39 30 45 13 4 24 10 24 16 0 12 -37 23 -50 15 -5 -3 -10 -2 -10 4 0 6 19
15 43 21 23 6 47 13 52 15 6 2 22 4 38 4 22 1 27 -3 27 -23z"/>
<path d="M1875 508 c-3 -13 -4 -108 -3 -213 l3 -190 110 0 c102 0 113 2 158
28 56 33 86 85 94 162 11 106 -43 196 -136 224 -21 6 -79 11 -129 11 -87 0
-92 -1 -97 -22z m246 -25 c65 -29 93 -87 87 -183 -4 -83 -24 -115 -91 -149
-34 -17 -71 -25 -132 -29 l-85 -5 0 190 c0 104 3 193 8 197 14 15 166 0 213
-21z"/>
<path d="M1956 428 c-3 -18 -5 -82 -3 -143 l2 -110 54 3 c94 5 139 43 148 126
10 89 -56 156 -155 156 -39 0 -41 -2 -46 -32z m113 -9 c53 -19 78 -100 50
-163 -14 -30 -70 -58 -107 -54 l-27 3 -3 113 -3 112 29 0 c16 0 43 -5 61 -11z"/>
<path d="M2327 433 c-88 -240 -115 -321 -110 -327 12 -11 90 -6 101 7 5 6 15
29 22 49 15 41 36 51 93 41 33 -5 40 -11 59 -54 l20 -49 49 0 c61 0 61 4 13
136 -20 55 -48 135 -64 179 -15 44 -31 88 -35 98 -6 13 -19 17 -60 17 l-53 0
-35 -97z m150 2 c13 -38 42 -120 64 -182 23 -62 38 -117 34 -122 -3 -6 -14
-11 -25 -11 -13 0 -25 16 -41 55 l-23 55 -76 0 -76 0 -18 -55 c-13 -41 -22
-55 -36 -55 -28 0 -32 15 -16 62 57 167 108 303 118 315 6 8 24 13 41 11 27
-3 32 -9 54 -73z"/>
<path d="M2404 414 c-4 -10 -15 -41 -26 -67 -10 -26 -18 -52 -18 -57 0 -11 93
-14 102 -4 6 6 -33 129 -45 140 -4 4 -10 -2 -13 -12z m24 -87 c2 -11 -3 -17
-16 -17 -15 0 -19 5 -15 20 6 24 26 21 31 -3z"/>
<path d="M2612 342 c-12 -8 -17 -38 -13 -85 1 -16 11 -17 104 -15 l102 3 3 48
c3 43 1 47 -20 47 -13 0 -54 3 -93 6 -38 3 -76 1 -83 -4z m173 -47 c0 -18 -8
-20 -74 -23 -77 -3 -98 5 -87 33 5 13 19 15 83 13 70 -3 78 -5 78 -23z"/>
</g>
</svg>
